<svg xmlns="http://www.w3.org/2000/svg" width="637" height="44.4"><style>.st1{fill:#fff}</style><path d="M294.9 37.2c-3.1-.7-5.3-2.3-6.6-4.7-1.3-2.4-1.6-5.1-1-8l.3-1.5c.5-2.2 1.4-4.5 2.8-6.8s3-4.5 5-6.5c1.9-2 4.1-3.9 6.5-5.7 2.4-1.7 4.9-3.1 7.5-4.1l8.2 1.9c-4.1 2.1-7.7 4.5-10.8 7.2-3.1 2.6-5.4 5.3-6.8 8.1l.3.1c2.9.7 5 2.1 6.2 4.4 1.2 2.3 1.5 4.7.9 7.2l-.2.9c-.6 2.7-2.1 4.8-4.3 6.3-2.4 1.5-5 1.9-8 1.2zm29.9 6.8c-3.1-.7-5.3-2.3-6.6-4.7-1.3-2.4-1.6-5.1-1-8l.3-1.5c.5-2.2 1.4-4.5 2.8-6.8s3-4.5 5-6.5c1.9-2 4.1-3.9 6.5-5.7 2.4-1.7 4.9-3.1 7.5-4.1l8.2 1.9c-4.1 2.1-7.7 4.5-10.8 7.2-3.1 2.6-5.4 5.3-6.8 8.1l.3.1c2.9.7 5 2.1 6.2 4.4 1.2 2.3 1.5 4.7.9 7.2l-.2.9c-.6 2.7-2.1 4.8-4.3 6.3-2.3 1.5-5 1.9-8 1.2z" fill="#132a38"/><path class="st1" d="M0 13.8h269v9H0zM368 13.8h269v9H368z"/></svg>